{
	"asset":{
		"generator":"Khronos glTF Blender I/O v4.4.56",
		"version":"2.0"
	},
	"scene":0,
	"scenes":[
		{
			"name":"Scene",
			"nodes":[
				0
			]
		}
	],
	"nodes":[
		{
			"mesh":0,
			"name":"Cube",
			"scale":[
				0.9296624660491943,
				0.916924238204956,
				0.464039146900177
			],
			"translation":[
				0,
				3.2722063064575195,
				0
			]
		}
	],
	"materials":[
		{
			"doubleSided":true,
			"name":"Material",
			"pbrMetallicRoughness":{
				"baseColorFactor":[
					0.800000011920929,
					0.800000011920929,
					0.800000011920929,
					1
				],
				"metallicFactor":0,
				"roughnessFactor":0.5
			}
		}
	],
	"meshes":[
		{
			"name":"Cube",
			"primitives":[
				{
					"attributes":{
						"POSITION":0,
						"NORMAL":1,
						"TEXCOORD_0":2
					},
					"indices":3,
					"material":0
				}
			]
		}
	],
	"accessors":[
		{
			"bufferView":0,
			"componentType":5126,
			"count":306,
			"max":[
				3.952044725418091,
				2.4519944190979004,
				2.3865842819213867
			],
			"min":[
				-0.01931162178516388,
				-3.9449992179870605,
				-1.2453957796096802
			],
			"type":"VEC3"
		},
		{
			"bufferView":1,
			"componentType":5126,
			"count":306,
			"type":"VEC3"
		},
		{
			"bufferView":2,
			"componentType":5126,
			"count":306,
			"type":"VEC2"
		},
		{
			"bufferView":3,
			"componentType":5123,
			"count":516,
			"type":"SCALAR"
		}
	],
	"bufferViews":[
		{
			"buffer":0,
			"byteLength":3672,
			"byteOffset":0,
			"target":34962
		},
		{
			"buffer":0,
			"byteLength":3672,
			"byteOffset":3672,
			"target":34962
		},
		{
			"buffer":0,
			"byteLength":2448,
			"byteOffset":7344,
			"target":34962
		},
		{
			"buffer":0,
			"byteLength":1032,
			"byteOffset":9792,
			"target":34963
		}
	],
	"buffers":[
		{
			"byteLength":10824,
			"uri":"chey.bin"
		}
	]
}
