{
	"asset":{
		"generator":"Khronos glTF Blender I/O v4.4.56",
		"version":"2.0"
	},
	"scene":0,
	"scenes":[
		{
			"name":"Scene",
			"nodes":[
				0,
				1
			]
		}
	],
	"nodes":[
		{
			"mesh":0,
			"name":"car"
		},
		{
			"mesh":1,
			"name":"car.001"
		}
	],
	"materials":[
		{
			"doubleSided":true,
			"name":"Material",
			"pbrMetallicRoughness":{
				"baseColorFactor":[
					0.800000011920929,
					0.800000011920929,
					0.800000011920929,
					1
				],
				"metallicFactor":0,
				"roughnessFactor":0.5
			}
		}
	],
	"meshes":[
		{
			"name":"Cube",
			"primitives":[
				{
					"attributes":{
						"POSITION":0,
						"NORMAL":1,
						"TEXCOORD_0":2
					},
					"indices":3,
					"material":0
				}
			]
		},
		{
			"name":"Cube.001",
			"primitives":[
				{
					"attributes":{
						"POSITION":4,
						"NORMAL":5,
						"TEXCOORD_0":6
					},
					"indices":7,
					"material":0
				}
			]
		}
	],
	"accessors":[
		{
			"bufferView":0,
			"componentType":5126,
			"count":569,
			"max":[
				5.311689376831055,
				5.694212913513184,
				10.90908432006836
			],
			"min":[
				-0.5581380724906921,
				-2.271233558654785,
				-5.743350982666016
			],
			"type":"VEC3"
		},
		{
			"bufferView":1,
			"componentType":5126,
			"count":569,
			"type":"VEC3"
		},
		{
			"bufferView":2,
			"componentType":5126,
			"count":569,
			"type":"VEC2"
		},
		{
			"bufferView":3,
			"componentType":5123,
			"count":1119,
			"type":"SCALAR"
		},
		{
			"bufferView":4,
			"componentType":5126,
			"count":240,
			"max":[
				5.974983215332031,
				-0.10288000106811523,
				10.166646957397461
			],
			"min":[
				3.9749832153320312,
				-4.102880001068115,
				-5.211644172668457
			],
			"type":"VEC3"
		},
		{
			"bufferView":5,
			"componentType":5126,
			"count":240,
			"type":"VEC3"
		},
		{
			"bufferView":6,
			"componentType":5126,
			"count":240,
			"type":"VEC2"
		},
		{
			"bufferView":7,
			"componentType":5123,
			"count":456,
			"type":"SCALAR"
		}
	],
	"bufferViews":[
		{
			"buffer":0,
			"byteLength":6828,
			"byteOffset":0,
			"target":34962
		},
		{
			"buffer":0,
			"byteLength":6828,
			"byteOffset":6828,
			"target":34962
		},
		{
			"buffer":0,
			"byteLength":4552,
			"byteOffset":13656,
			"target":34962
		},
		{
			"buffer":0,
			"byteLength":2238,
			"byteOffset":18208,
			"target":34963
		},
		{
			"buffer":0,
			"byteLength":2880,
			"byteOffset":20448,
			"target":34962
		},
		{
			"buffer":0,
			"byteLength":2880,
			"byteOffset":23328,
			"target":34962
		},
		{
			"buffer":0,
			"byteLength":1920,
			"byteOffset":26208,
			"target":34962
		},
		{
			"buffer":0,
			"byteLength":912,
			"byteOffset":28128,
			"target":34963
		}
	],
	"buffers":[
		{
			"byteLength":29040,
			"uri":"Galant.bin"
		}
	]
}
